<?xml version="1.0" encoding="UTF-8"?>
<svg width="593px" height="85px" viewBox="0 0 593 85" version="1.1" xmlns="http://www.w3.org/2000/svg" xmlns:xlink="http://www.w3.org/1999/xlink">
    <!-- Generator: Sketch 63.1 (92452) - https://sketch.com -->
    <title>Tabulera Nav Logo Salmon</title>
    <desc>Created with Sketch.</desc>
    <g id="Tabulera-Nav-Logo-Salmon" stroke="none" stroke-width="1" fill="none" fill-rule="evenodd">
        <g id="Nav-Logo-orig" transform="translate(27.000000, 0.000000)" fill-rule="nonzero">
            <polygon id="Fill-1" fill="#1A1919" points="28.09 82.793 55.496 82.793 55.496 55.387 28.09 55.387"></polygon>
            <polygon id="Fill-2" fill="#1A1919" points="55.4961 0.5752 28.0901 0.5752 0.6841 0.5752 0.6841 27.9802 28.0901 27.9802 55.4961 27.9802 82.9021 27.9802 82.9021 0.5752"></polygon>
            <polygon id="Fill-3" fill="#EA9180" points="82.813 27.9805 55.407 27.9805 28 27.9805 28 55.3875 55.407 55.3875 82.813 55.3875 110.219 55.3875 110.219 27.9805"></polygon>
            <g id="Group-17" transform="translate(151.000000, 0.280000)" fill="#1A1919">
                <path d="M40.8677,82.513 C37.3597,83.39 33.9617,83.828 30.6727,83.828 C16.9707,83.828 8.9677,77.032 8.9677,63.438 L8.9677,40.746 L0.4167,40.746 L0.4167,28.249 L8.9677,28.249 L8.9677,14.546 L23.7667,14.546 L23.7667,28.249 L39.1137,28.249 L39.1137,40.746 L23.7667,40.746 L23.7667,62.123 C23.7667,68.262 26.8357,70.563 33.8517,70.563 C34.7287,70.563 37.0307,70.453 40.8677,70.125 L40.8677,82.513 Z" id="Fill-4"></path>
                <path d="M81.2817,61.5745 L69.6617,61.5745 C64.8387,61.5745 62.0977,63.4375 62.0977,67.0555 C62.0977,70.6735 65.1677,72.9745 69.8807,72.9745 C76.3487,72.9745 81.2817,68.4805 81.2817,62.2325 L81.2817,61.5745 Z M96.0807,82.5125 L82.4877,82.5125 L82.4877,77.2515 C78.5417,81.3065 72.8417,83.8285 65.9347,83.8285 C54.4247,83.8285 47.1897,77.1415 47.1897,67.6035 C47.1897,57.8465 55.0817,51.8185 67.6887,51.8185 L81.2817,51.8185 L81.2817,49.4065 C81.2817,43.3765 77.7737,39.8695 71.1967,39.8695 C65.6057,39.8695 61.6597,42.1715 56.8357,47.3245 L49.1617,38.2245 C55.4107,30.7705 63.3037,27.0435 72.8417,27.0435 C86.9827,27.0435 96.0807,35.2645 96.0807,50.2825 L96.0807,82.5125 Z" id="Fill-6"></path>
                <path d="M137.4717,40.4178 C129.9077,40.4178 123.7687,45.7888 123.7687,55.4358 C123.7687,65.1918 130.0167,70.3438 137.4717,70.3438 C145.4737,70.3438 151.5027,64.4238 151.5027,55.3268 C151.5027,46.4468 145.3647,40.4178 137.4717,40.4178 M140.2117,83.8288 C132.7577,83.8288 126.6187,80.9778 122.7817,75.8258 L122.7817,82.5128 L109.1887,82.5128 L109.1887,0.2948 L123.9877,0.2948 L123.9877,33.5118 C127.9337,29.2358 133.3057,27.0438 140.2117,27.0438 C155.3397,27.0438 166.5217,39.1018 166.5217,55.4358 C166.5217,71.7688 155.3397,83.8288 140.2117,83.8288" id="Fill-8"></path>
                <path d="M176.2305,28.2488 L191.0295,28.2488 L191.0295,59.8208 C191.0295,66.0688 195.3045,70.2358 201.3345,70.2358 C207.0345,70.2358 211.4185,66.0688 211.4185,59.8208 L211.4185,28.2488 L226.2185,28.2488 L226.2185,58.6148 C226.2185,73.7428 215.4755,83.8288 201.3345,83.8288 C186.8635,83.8288 176.2305,73.7428 176.2305,58.6148 L176.2305,28.2488 Z" id="Fill-10"></path>
                <polygon id="Fill-12" points="239.215 82.513 254.015 82.513 254.015 0.295 239.215 0.295"></polygon>
                <path d="M303.7158,49.9539 C303.6068,43.2669 298.4538,38.9929 291.9868,38.9929 C285.7368,38.9929 280.6948,43.2669 279.0508,49.9539 L303.7158,49.9539 Z M279.0508,60.3689 C280.8048,67.2749 286.3948,71.1119 294.2878,71.1119 C299.6598,71.1119 304.7018,69.2479 309.4158,65.6299 L315.5548,75.7159 C309.0868,81.0869 301.8518,83.8289 293.8498,83.8289 C277.0768,84.1579 263.8128,71.1119 264.1418,55.4359 C263.8128,39.7599 276.8578,26.7149 292.5338,27.0439 C307.5518,27.0439 318.0758,38.1149 318.0758,52.2569 C318.0758,54.8879 317.7478,57.6279 317.0898,60.3689 L279.0508,60.3689 Z" id="Fill-14"></path>
                <path d="M361.8877,41.2947 L357.9417,41.2947 C349.0617,41.2947 343.3617,46.1177 343.3617,55.4357 L343.3617,82.5127 L328.5627,82.5127 L328.5627,28.2487 L342.1557,28.2487 L342.1557,34.7177 C345.7737,30.2217 351.0347,27.5917 357.0647,27.5917 C358.9277,27.5917 360.4627,27.8117 361.8877,28.2487 L361.8877,41.2947 Z" id="Fill-15"></path>
                <path d="M399.9014,61.5745 L388.2814,61.5745 C383.4584,61.5745 380.7174,63.4375 380.7174,67.0555 C380.7174,70.6735 383.7874,72.9745 388.5004,72.9745 C394.9684,72.9745 399.9014,68.4805 399.9014,62.2325 L399.9014,61.5745 Z M414.7004,82.5125 L401.1074,82.5125 L401.1074,77.2515 C397.1614,81.3065 391.4614,83.8285 384.5544,83.8285 C373.0444,83.8285 365.8084,77.1415 365.8084,67.6035 C365.8084,57.8465 373.7014,51.8185 386.3074,51.8185 L399.9014,51.8185 L399.9014,49.4065 C399.9014,43.3765 396.3934,39.8695 389.8154,39.8695 C384.2254,39.8695 380.2794,42.1715 375.4554,47.3245 L367.7814,38.2245 C374.0304,30.7705 381.9224,27.0435 391.4614,27.0435 C405.6014,27.0435 414.7004,35.2645 414.7004,50.2825 L414.7004,82.5125 Z" id="Fill-16"></path>
            </g>
        </g>
    </g>
</svg>
